<?xml version="1.0" encoding="utf-8"?>
<!-- Generator: Adobe Illustrator 23.1.0, SVG Export Plug-In . SVG Version: 6.00 Build 0)  -->
<svg version="1.1" id="Calque_1" xmlns="http://www.w3.org/2000/svg" xmlns:xlink="http://www.w3.org/1999/xlink" x="0px" y="0px"
	 viewBox="0 0 64 64" style="enable-background:new 0 0 64 64;" xml:space="preserve">
<style type="text/css">
	.transparent{
    fill:#000000;
    opacity: 0;
    }
</style>
<path d="M21,53.6c-0.2,2.6,1.1,5.1,3.5,6.5c3.1,1.8,6.9,1,9-1.7C29.3,57.4,25.2,55.9,21,53.6z"/>
<path class="transparent" d="M37.8,55.3c0,0-2.5-5.1-1.9-8.1c0.6-3.1,6.2-12.6,7.4-15.4c1.2-2.8,2.9-8.6-0.8-11.9s-9.8-4.5-11.9-3.3
	c-2.1,1.2-9.3,12.1-11.2,15.1s-5.6,5.6-8,5.9s-4,1.1-3.1,2.1s3.1,5.3,9.3,9.1S35.5,56.8,37.8,55.3z"/>
<path d="M38.5,52.6c-1.6-3.2-1.8-6.8,1.7-12.9l4.3-7.4c2.8-4.9,1.7-10.9-2.5-14.5l0.8-1.4c2.2,0.3,4.4-0.7,5.6-2.7
	c1.5-2.6,0.6-6-2-7.5s-6-0.6-7.5,2c-1.2,2-0.9,4.5,0.5,6.2l-0.8,1.4C33.5,14,27.7,16,24.8,20.9l-4.3,7.4c-3.5,6.1-6.7,7.7-10.3,7.9
	c0,0-5.8,0.1-2.5,4.3s7.2,7.6,12.4,10.6l0.6,0.4c5.2,3,10,4.6,15.4,5.4S38.5,52.6,38.5,52.6z M40.6,9.4c1-1.7,3.1-2.2,4.8-1.3
	s2.2,3.1,1.3,4.8c-0.6,1-1.6,1.6-2.7,1.7c0.5-0.9,0.1-2.1-0.8-2.6c-0.9-0.5-2.1-0.2-2.7,0.6C40,11.6,40,10.4,40.6,9.4z M33.5,54.3
	c-4.2-0.7-7.9-2-12-4.3L21,49.6c-4.1-2.3-7.1-5-9.8-8.2c-2.6-3.2,1.9-3.2,1.9-3.2c2.8-0.1,5.2-1.2,7.8-5.8l6-10.4
	c2.2-3.6,6.6-5.1,10.6-3.6l2.7,1.6c3.3,2.8,4.3,7.3,2.2,11l-6,10.4c-2.6,4.5-2.4,7.3-1.1,9.7C35.3,51.1,37.7,55,33.5,54.3z"/>
</svg>
