<?xml version="1.0" encoding="utf-8"?>
<!-- Generator: Adobe Illustrator 23.1.0, SVG Export Plug-In . SVG Version: 6.00 Build 0)  -->
<svg version="1.1" id="Calque_1" xmlns="http://www.w3.org/2000/svg" xmlns:xlink="http://www.w3.org/1999/xlink" x="0px" y="0px"
	 viewBox="0 0 128 128" style="enable-background:new 0 0 128 128;" xml:space="preserve">
<path d="M107.6,53.8h-3.9c-3.2,0-5.9-2.8-5.9-6c0-1.7,0.7-3.2,1.9-4.3l2.5-2.5c2.5-2.5,2.5-6.5,0-9l-5.8-5.7
	c-1.1-1.1-2.8-1.8-4.5-1.8s-3.4,0.7-4.5,1.8L85,28.7c-1.2,1.3-2.7,2-4.4,2c-3.3,0-6.1-2.7-6.1-5.9v-4c0-3.5-2.8-6.5-6.3-6.5h-7.9
	c-3.5,0-6.3,3-6.3,6.5v3.9c0,3.2-2.8,5.9-6.1,5.9c-1.7,0-3.2-0.7-4.3-1.9l-2.5-2.5c-1.1-1.2-2.8-1.8-4.5-1.8s-3.4,0.7-4.5,1.8
	l-5.8,5.7c-2.5,2.5-2.5,6.5,0,9l2.4,2.4c1.3,1.2,2,2.7,2,4.4c0,3.3-2.7,6-5.9,6h-3.9c-3.5,0-6.5,2.8-6.5,6.3V64v3.9
	c0,3.5,3,6.3,6.5,6.3h3.9c3.2,0,5.9,2.8,5.9,6c0,1.7-0.7,3.2-2,4.4L26.3,87c-2.5,2.5-2.5,6.5,0,9l5.8,5.7c1.1,1.2,2.8,1.8,4.5,1.8
	c1.7,0,3.4-0.7,4.5-1.8l2.5-2.5c1.1-1.2,2.6-1.9,4.3-1.9c3.3,0,6.1,2.7,6.1,5.9v3.9c0,3.5,2.8,6.5,6.3,6.5h7.9c3.5,0,6.3-3,6.3-6.5
	v-3.9c0-3.2,2.8-5.9,6.1-5.9c1.7,0,3.2,0.7,4.4,2l2.4,2.4c1.2,1.1,2.8,1.8,4.5,1.8s3.4-0.7,4.5-1.8l5.8-5.7c2.5-2.5,2.5-6.5,0-9
	l-2.5-2.5c-1.2-1.1-1.9-2.6-1.9-4.3c0-3.3,2.7-6,5.9-6h3.9c3.5,0,6-2.8,6-6.3v-4v-3.9C113.6,56.5,111.1,53.8,107.6,53.8z M84.9,64
	L84.9,64c0,11.4-9.2,20.7-20.7,20.7S43.6,75.4,43.6,64l0,0l0,0c0-11.4,9.2-20.7,20.7-20.7S84.9,52.6,84.9,64L84.9,64z"/>
</svg>
