<?xml version="1.0" encoding="utf-8"?>
<!-- Generator: Adobe Illustrator 23.0.0, SVG Export Plug-In . SVG Version: 6.00 Build 0)  -->
<svg version="1.2" baseProfile="tiny" id="Calque_1"
	 xmlns="http://www.w3.org/2000/svg" xmlns:xlink="http://www.w3.org/1999/xlink" x="0px" y="0px" viewBox="0 0 128 128"
	 xml:space="preserve">
<path d="M111.4,58.1c-1.8-8.6-21.2-11.5-21.2-11.5s4.1-5.3,6.4-12.9c2.3-7.6,1.2-19.1-7.4-20.1c-8.6-1.1-9.7,5.3-13.8,14.5
	c-4.1,9.2-25.6,20.3-29.3,22.8c-3.7,2.5-3.2,5.1-3.2,5.1v39c0,3.9,5.6,5.5,12.4,7.2s22.2,4.4,30,3.5c7.8-0.9,9.9-8.3,13.2-15.2
	c3.4-6.9,6.5-16.6,6.5-16.6s1.1-0.4,2.5-1.8C108.9,70.8,113.2,66.7,111.4,58.1z M96.9,72.9c-2.8,6.5-8.6,22.2-11.1,24.2
	s-14.3-0.2-22.1-1.4s-13.1-3-13.1-3V57.5c0,0,19.9-12.4,26.6-19.4c6.7-7.1,7.6-12.2,8.1-13.6s2.6-6.9,4.1-0.5S86,39.4,82.5,43.4
	c-3.5,4.1-7.1,7.8,2.1,9.9c9.2,2.1,19.2,3.5,19.4,8.3S99.8,66.4,96.9,72.9z"/>
<path d="M20.1,101.4h6.9c4.9,0,9-4.1,9-9V57.6c0-4.9-4.1-9-9-9h-6.9c-4.9,0-9,4.1-9,9v34.8C11.1,97.3,15.1,101.4,20.1,101.4z"/>
</svg>
